<svg xmlns="http://www.w3.org/2000/svg" width="200" height="200" viewBox="0 0 200 200">
  <path id="Icon_metro-cross" data-name="Icon metro-cross" d="M200.75,162.613h0l-60.677-60.68,60.677-60.68h0a6.267,6.267,0,0,0,0-8.834L172.083,3.75a6.267,6.267,0,0,0-8.834,0h0L102.572,64.43,41.894,3.75h0a6.267,6.267,0,0,0-8.834,0L4.393,32.419a6.267,6.267,0,0,0,0,8.834h0l60.677,60.68L4.393,162.613h0a6.267,6.267,0,0,0,0,8.834l28.659,28.661a6.267,6.267,0,0,0,8.834,0h0l60.677-60.68,60.677,60.68h0a6.267,6.267,0,0,0,8.834,0l28.659-28.661a6.267,6.267,0,0,0,0-8.834Z" transform="translate(-2.571 -1.929)"/>
</svg>
