<svg xmlns="http://www.w3.org/2000/svg" width="200.111" height="200" viewBox="0 0 200.111 200">
  <path id="ReloadIcon" d="M187.783,102A14.329,14.329,0,0,0,173.5,114.614c-5.221,23.314-27.379,58.814-71.429,58.814A71.429,71.429,0,1,1,144.64,44.857h-14a14.286,14.286,0,1,0,0,28.571H173.5a14.286,14.286,0,0,0,14.286-14.286V16.286a14.286,14.286,0,1,0-28.571,0v3.7A100,100,0,1,0,102.068,202c71.279,0,100-67.857,100-84.821A14.229,14.229,0,0,0,187.783,102Z" transform="translate(-1.989 -2)" fill="#0a3282"/>
</svg>
