<svg xmlns="http://www.w3.org/2000/svg" width="200" height="200" viewBox="0 0 200 200">
  <g id="Layer_2" transform="translate(-2 -2)">
    <g id="Group_927" data-name="Group 927" transform="translate(2 2)">
      <path id="Path_3151" data-name="Path 3151" d="M102,2A100,100,0,1,0,202,102,100.079,100.079,0,0,0,102,2Zm0,183.333A83.333,83.333,0,1,1,185.333,102,83.364,83.364,0,0,1,102,185.333Z" transform="translate(-2 -2)" fill="#0a3282"/>
      <path id="Path_3152" data-name="Path 3152" d="M16,6.85a8.417,8.417,0,0,0-8.5,8.5v57.8a8.417,8.417,0,0,0,8.5,8.5,8.417,8.417,0,0,0,8.5-8.5V15.35A8.525,8.525,0,0,0,16,6.85Z" transform="translate(84 84.68)" fill="#0a3282"/>
      <path id="Path_3153" data-name="Path 3153" d="M16.17,4.817c-4.42-.34-8.5,4.25-8.67,8.84v1.36c0,4.59,3.57,7.99,8.33,8.16H16c4.59,0,8.33-4.08,8.5-8.5v-1.87C24.5,7.877,20.93,4.817,16.17,4.817Z" transform="translate(84 46.484)" fill="#0a3282"/>
    </g>
  </g>
</svg>
