<svg xmlns="http://www.w3.org/2000/svg" width="136.517" height="200" viewBox="0 0 136.517 200">
  <g id="_4014672_bill_contract_cost_document_mobile_icon" data-name="4014672_bill_contract_cost_document_mobile_icon" transform="translate(-75)">
    <path id="Path_3154" data-name="Path 3154" d="M57.75,12.5c-6.625,0-9.031,4.813-10.594,7.969S44.656,25,42.125,25H23.375A9.375,9.375,0,0,0,14,34.375v156.25A9.375,9.375,0,0,0,23.375,200h93.75a9.375,9.375,0,0,0,9.375-9.375V150a3.125,3.125,0,0,0-6.25,0v40.625a3.125,3.125,0,0,1-3.125,3.125H23.375a3.125,3.125,0,0,1-3.125-3.125V34.375a3.125,3.125,0,0,1,3.125-3.125H56.188v4.688H29.625a4.688,4.688,0,0,0-4.687,4.688V181.25a4.688,4.688,0,0,0,4.688,4.688h81.25a4.687,4.687,0,0,0,4.688-4.687V150a1.563,1.563,0,0,0-3.125,0v6.25a9.375,9.375,0,0,1-2.656,7.594,10.062,10.062,0,0,1-8.219,1.062A2.469,2.469,0,0,0,99,165.938a2.562,2.562,0,0,0,0,2.844,6.781,6.781,0,0,1,.281,7.406A13.812,13.812,0,0,1,89,182.813H29.625a1.562,1.562,0,0,1-1.562-1.562V40.625a1.562,1.562,0,0,1,1.563-1.562H56.469a5.312,5.312,0,0,0,.594,1.094l.156.188a3.875,3.875,0,0,0,.813.781h0a6.25,6.25,0,0,0,1.125.563h.25a4.625,4.625,0,0,0,1.313.219h18.75a4.625,4.625,0,0,0,1.313-.219h.25a6.25,6.25,0,0,0,1.125-.563h0a3.875,3.875,0,0,0,.812-.781l.156-.187a5.313,5.313,0,0,0,.594-1.094h27.156a1.562,1.562,0,0,1,1.563,1.563v68.75a1.563,1.563,0,0,0,3.125,0V40.625a4.687,4.687,0,0,0-4.687-4.687H84.313V31.25h32.813a3.125,3.125,0,0,1,3.125,3.125v50a3.125,3.125,0,0,0,6.25,0v-50A9.375,9.375,0,0,0,117.125,25H98.375c-2.531,0-3.344-1.187-5.031-4.531S89.375,12.5,82.75,12.5H79.063a9.375,9.375,0,1,0-17.625,0Zm44.219,165.188a9.813,9.813,0,0,0,.25-9.375,12.062,12.062,0,0,0,9.531-1.969l.687-.719V181.25a1.562,1.562,0,0,1-1.562,1.563H97.281a16.281,16.281,0,0,0,4.688-5.125ZM81.188,37.5a1.562,1.562,0,0,1-1.562,1.563H60.875A1.562,1.562,0,0,1,59.313,37.5V31.25H81.188Zm6.594-14.219c.25.531.563,1.125.875,1.719H51.844c.313-.594.625-1.187.875-1.719,1.687-3.344,2.5-4.531,5.031-4.531h25C85.281,18.75,86.094,19.938,87.781,23.281ZM67.125,9.375A3.125,3.125,0,1,1,70.25,12.5a3.125,3.125,0,0,1-3.125-3.125Z" transform="translate(61)" fill="#0a3282"/>
    <path id="Path_3155" data-name="Path 3155" d="M24,93.5h8c1.381,0,2.5-3.492,2.5-7.8V23.3c0-4.308-1.119-7.8-2.5-7.8H24c-1.381,0-2.5,3.492-2.5,7.8v3.588A6.108,6.108,0,0,0,21,29.54v6.24a6.108,6.108,0,0,0,.5,2.652V85.7c0,4.308,1.119,7.8,2.5,7.8Zm8-3.12H24c-.828,0-1.5-2.1-1.5-4.68V27.356h1c.33,0,.48.437.76,1.373.354,1.459.9,2.333,1.49,2.371h4.5c.587-.038,1.136-.912,1.49-2.371.28-.936.43-1.373.76-1.373h1V85.7C33.5,88.285,32.828,90.38,32,90.38ZM22.5,23.3c0-2.585.672-4.68,1.5-4.68h8c.828,0,1.5,2.1,1.5,4.68v.936h-1c-.587.038-1.136.912-1.49,2.371-.28.936-.43,1.373-.76,1.373h-4.5c-.33,0-.48-.437-.76-1.373-.354-1.459-.9-2.333-1.49-2.371h-1Z" transform="translate(76 33.5)" fill="#0a3282"/>
    <path id="Path_3157" data-name="Path 3157" d="M56.974,42.681a3.145,3.145,0,0,0-4.4.5L42.192,56.142l-3.806-3.806A3.158,3.158,0,0,0,33.921,56.8l6.29,6.29A3.145,3.145,0,0,0,42.444,64h.189a3.145,3.145,0,0,0,2.264-1.2l12.58-15.726A3.145,3.145,0,0,0,56.974,42.681Z" transform="translate(77.504 98)" fill="#0a3282"/>
    <path id="Path_3164" data-name="Path 3164" d="M47.306,68.881A9.449,9.449,0,0,0,46.3,81.007l-2.331,2.331a1.575,1.575,0,0,0,0,2.236,1.512,1.512,0,0,0,2.2,0l2.362-2.331a9.585,9.585,0,0,0,12.283-1.008l4.441-4.441,35.5-35.653a9.449,9.449,0,0,0,0-13.354h0a9.449,9.449,0,0,0-12.6-.63,10.078,10.078,0,0,0-8.283.5,55.022,55.022,0,0,0-15.4,11.905,1.606,1.606,0,0,0,0,2.236,1.638,1.638,0,0,0,2.236,0C77.164,32.347,82.455,30.363,85.6,30.646L51.747,64.409Zm8.913,8.913a3.162,3.162,0,0,1-4.472-4.472l2.236-2.236,4.441,4.472ZM91.841,33.229A3.151,3.151,0,1,1,96.282,37.7L62.9,71.086l-4.472-4.441Z" transform="translate(108 58.949)" fill="#0a3282"/>
  </g>
</svg>
