<svg xmlns="http://www.w3.org/2000/svg" width="171.429" height="200" viewBox="0 0 171.429 200">
  <path id="_6579069_and_chat_computers_hardware_head_icon" data-name="6579069_and_chat_computers_hardware_head_icon" d="M89.714,2C42.571,2,4,39.857,4,87v29.286A35.367,35.367,0,0,0,39.714,152a6.748,6.748,0,0,0,7.143-7.143V87.714a6.748,6.748,0,0,0-7.143-7.143,36.726,36.726,0,0,0-21.429,7.143V86.286c0-38.571,32.143-70,71.429-70S161.143,47.714,161.143,87v.714a36.726,36.726,0,0,0-21.429-7.143,6.748,6.748,0,0,0-7.143,7.143v57.143A6.748,6.748,0,0,0,139.714,152c5,0,10-1.429,14.286-2.857-7.143,15-20,26.429-35.714,32.857v-1.429a6.748,6.748,0,0,0-7.143-7.143H89.714a6.748,6.748,0,0,0-7.143,7.143v14.286A6.748,6.748,0,0,0,89.714,202c47.143,0,85.714-37.143,85.714-82.857V87C175.429,39.857,136.857,2,89.714,2Z" transform="translate(-4 -2)" fill="#707070"/>
</svg>
