<svg xmlns="http://www.w3.org/2000/svg" width="200" height="200" viewBox="0 0 200 200">
  <path id="_211874_person_icon" data-name="211874_person_icon" d="M264,264s0-13.75-1.146-20.938c-.937-5.677-8.8-13.177-42.24-25.469-32.917-12.083-30.885-6.2-30.885-28.437,0-14.427,7.344-6.042,12.031-33.438,1.823-10.781,3.281-3.594,7.24-20.885,2.083-9.063-1.406-9.74-.99-14.063s.833-8.177,1.615-17.031C210.563,92.8,200.406,64,164,64s-46.562,28.8-45.573,39.792c.781,8.8,1.2,12.708,1.615,17.031s-3.073,5-.99,14.063c3.958,17.24,5.417,10.052,7.24,20.885,4.688,27.4,12.031,19.01,12.031,33.438,0,22.292,2.031,16.406-30.885,28.438C74,229.885,66.083,237.437,65.2,243.115,64,250.25,64,264,64,264H264Z" transform="translate(-64 -64)" fill="#0a3282"/>
</svg>
